<!DOCTYPE svg PUBLIC "-//W3C//DTD SVG 1.1//EN" "http://www.w3.org/Graphics/SVG/1.1/DTD/svg11.dtd">
<!-- Uploaded to: SVG Repo, www.svgrepo.com, Transformed by: SVG Repo Mixer Tools -->
<svg fill="#ffffff" height="800px" width="800px" version="1.1" id="Capa_1" xmlns="http://www.w3.org/2000/svg" xmlns:xlink="http://www.w3.org/1999/xlink" viewBox="0 0 472.23 472.23" xml:space="preserve">
<g id="SVGRepo_bgCarrier" stroke-width="0"/>
<g id="SVGRepo_tracerCarrier" stroke-linecap="round" stroke-linejoin="round"/>
<g id="SVGRepo_iconCarrier"> <path d="M404.74,17.421C404.74,7.802,396.945,0,387.318,0H272.763c-3.96,0-7.518,2.38-9.027,6.03 c-1.51,3.651-0.678,7.848,2.11,10.644l13.354,13.347L130.172,179.057c-7.224,7.216-7.224,18.923,0,26.147l23.536,23.537 l-3.742,3.743c-5.854,5.853-13.602,9.642-21.812,10.675c-31.346,3.927-55.976,28.557-59.889,59.887l-0.663,5.252 c-1.093,8.642,5.038,16.529,13.679,17.622c0.663,0.085,1.341,0.123,1.987,0.123c7.841,0,14.633-5.83,15.635-13.802l0.662-5.267 c2.127-17.015,15.496-30.384,32.501-32.518c15.142-1.894,29.421-8.88,40.204-19.661l3.742-3.743l23.521,23.529 c3.465,3.465,8.179,5.413,13.077,5.413c4.898,0,9.612-1.948,13.077-5.413l23.291-23.299l20.147,20.147L95.253,445.306 c-6.162,6.161-6.162,16.142,0,22.304c3.081,3.082,7.115,4.621,11.151,4.621c4.037,0,8.071-1.54,11.151-4.621l267.775-267.765 c6.161-6.163,6.161-16.144,0-22.305c-6.161-6.161-16.142-6.161-22.305,0l-71.594,71.588l-20.149-20.149l103.435-103.434 l13.354,13.355c2.805,2.796,6.994,3.636,10.645,2.118c3.651-1.51,6.037-5.068,6.037-9.027L404.74,17.421z"/> </g>
</svg>